<svg width="16" height="16" viewBox="0 0 16 16" fill="none" xmlns="http://www.w3.org/2000/svg">
<path d="M8 13.9999C6.7 13.9999 5.5972 13.5471 4.6916 12.6415C3.786 11.7359 3.3332 10.6331 3.3332 9.33309C3.3332 8.24429 3.66373 7.27762 4.3248 6.43309C4.98613 5.58882 5.84453 5.04442 6.9 4.79989C6.63333 4.74442 6.37493 4.66389 6.1248 4.55829C5.87493 4.45269 5.65 4.29989 5.45 4.09989C5.12787 3.76656 4.914 3.37482 4.8084 2.92469C4.7028 2.47482 4.6556 2.01096 4.6668 1.53309C4.8444 1.47762 5.01653 1.45269 5.1832 1.45829C5.34987 1.46389 5.4944 1.51109 5.6168 1.59989C6.33893 1.66656 6.95 1.97216 7.45 2.51669C7.95 3.06096 8.2 3.70536 8.2 4.44989C8.35547 4.01656 8.56107 3.61096 8.8168 3.23309C9.07227 2.85549 9.36107 2.50549 9.6832 2.18309C9.7944 2.08309 9.92507 2.03309 10.0752 2.03309C10.2251 2.03309 10.3556 2.08309 10.4668 2.18309C10.5777 2.29429 10.6332 2.42496 10.6332 2.57509C10.6332 2.72496 10.5777 2.85549 10.4668 2.96669C10.2001 3.23336 9.9612 3.52216 9.75 3.83309C9.5388 4.14429 9.36653 4.47762 9.2332 4.83309C10.2556 5.11096 11.0835 5.66656 11.7168 6.49989C12.3501 7.33322 12.6668 8.27762 12.6668 9.33309C12.6668 10.6331 12.214 11.7359 11.3084 12.6415C10.4028 13.5471 9.3 13.9999 8 13.9999ZM8 12.8831C8.9888 12.8831 9.82773 12.5387 10.5168 11.8499C11.2056 11.1611 11.55 10.3222 11.55 9.33309C11.55 8.34429 11.2056 7.50549 10.5168 6.81669C9.82773 6.12762 8.9888 5.78309 8 5.78309C7.0112 5.78309 6.17227 6.12762 5.4832 6.81669C4.7944 7.50549 4.45 8.34429 4.45 9.33309C4.45 10.3222 4.7944 11.1611 5.4832 11.8499C6.17227 12.5387 7.0112 12.8831 8 12.8831Z" fill="#FFC801"/>
</svg>
