<svg width="186" height="40" viewBox="0 0 186 40" fill="none" xmlns="http://www.w3.org/2000/svg">
<path d="M50.2031 20.5117H45.8203L45.7969 18.0977H49.4766C50.125 18.0977 50.6562 18.0156 51.0703 17.8516C51.4844 17.6797 51.793 17.4336 51.9961 17.1133C52.207 16.7852 52.3125 16.3867 52.3125 15.918C52.3125 15.3867 52.2109 14.957 52.0078 14.6289C51.8125 14.3008 51.5039 14.0625 51.082 13.9141C50.668 13.7656 50.1328 13.6914 49.4766 13.6914H47.0391V28H43.5234V10.9375H49.4766C50.4688 10.9375 51.3555 11.0312 52.1367 11.2188C52.9258 11.4062 53.5938 11.6914 54.1406 12.0742C54.6875 12.457 55.1055 12.9414 55.3945 13.5273C55.6836 14.1055 55.8281 14.793 55.8281 15.5898C55.8281 16.293 55.668 16.9414 55.3477 17.5352C55.0352 18.1289 54.5391 18.6133 53.8594 18.9883C53.1875 19.3633 52.3086 19.5703 51.2227 19.6094L50.2031 20.5117ZM50.0508 28H44.8594L46.2305 25.2578H50.0508C50.668 25.2578 51.1719 25.1602 51.5625 24.9648C51.9531 24.7617 52.2422 24.4883 52.4297 24.1445C52.6172 23.8008 52.7109 23.4062 52.7109 22.9609C52.7109 22.4609 52.625 22.0273 52.4531 21.6602C52.2891 21.293 52.0234 21.0117 51.6562 20.8164C51.2891 20.6133 50.8047 20.5117 50.2031 20.5117H46.8164L46.8398 18.0977H51.0586L51.8672 19.0469C52.9062 19.0312 53.7422 19.2148 54.375 19.5977C55.0156 19.9727 55.4805 20.4609 55.7695 21.0625C56.0664 21.6641 56.2148 22.3086 56.2148 22.9961C56.2148 24.0898 55.9766 25.0117 55.5 25.7617C55.0234 26.5039 54.3242 27.0625 53.4023 27.4375C52.4883 27.8125 51.3711 28 50.0508 28ZM65.6344 25.1406V19.4922C65.6344 19.0859 65.568 18.7383 65.4352 18.4492C65.3023 18.1523 65.0953 17.9219 64.8141 17.7578C64.5406 17.5938 64.1852 17.5117 63.7477 17.5117C63.3727 17.5117 63.0484 17.5781 62.775 17.7109C62.5016 17.8359 62.2906 18.0195 62.1422 18.2617C61.9937 18.4961 61.9195 18.7734 61.9195 19.0938H58.5445C58.5445 18.5547 58.6695 18.043 58.9195 17.5586C59.1695 17.0742 59.5328 16.6484 60.0094 16.2812C60.4859 15.9062 61.0523 15.6133 61.7086 15.4023C62.3727 15.1914 63.1148 15.0859 63.9352 15.0859C64.9195 15.0859 65.7945 15.25 66.5602 15.5781C67.3258 15.9062 67.9273 16.3984 68.3648 17.0547C68.8102 17.7109 69.0328 18.5312 69.0328 19.5156V24.9414C69.0328 25.6367 69.0758 26.207 69.1617 26.6523C69.2477 27.0898 69.3727 27.4727 69.5367 27.8008V28H66.1266C65.9625 27.6562 65.8375 27.2266 65.7516 26.7109C65.6734 26.1875 65.6344 25.6641 65.6344 25.1406ZM66.0797 20.2773L66.1031 22.1875H64.2164C63.7711 22.1875 63.3844 22.2383 63.0562 22.3398C62.7281 22.4414 62.4586 22.5859 62.2477 22.7734C62.0367 22.9531 61.8805 23.1641 61.7789 23.4062C61.6852 23.6484 61.6383 23.9141 61.6383 24.2031C61.6383 24.4922 61.7047 24.7539 61.8375 24.9883C61.9703 25.2148 62.1617 25.3945 62.4117 25.5273C62.6617 25.6523 62.9547 25.7148 63.2906 25.7148C63.7984 25.7148 64.2398 25.6133 64.6148 25.4102C64.9898 25.207 65.2789 24.957 65.482 24.6602C65.693 24.3633 65.8023 24.082 65.8102 23.8164L66.7008 25.2461C66.5758 25.5664 66.4039 25.8984 66.1852 26.2422C65.9742 26.5859 65.7047 26.9102 65.3766 27.2148C65.0484 27.5117 64.6539 27.7578 64.193 27.9531C63.732 28.1406 63.1852 28.2344 62.5523 28.2344C61.7477 28.2344 61.0172 28.0742 60.3609 27.7539C59.7125 27.4258 59.1969 26.9766 58.8141 26.4062C58.4391 25.8281 58.2516 25.1719 58.2516 24.4375C58.2516 23.7734 58.3766 23.1836 58.6266 22.668C58.8766 22.1523 59.2437 21.7188 59.7281 21.3672C60.2203 21.0078 60.8336 20.7383 61.568 20.5586C62.3023 20.3711 63.1539 20.2773 64.1227 20.2773H66.0797ZM75.0891 18.0273V28H71.7141V15.3203H74.8781L75.0891 18.0273ZM74.5969 21.2148H73.6828C73.6828 20.2773 73.8039 19.4336 74.0461 18.6836C74.2883 17.9258 74.6281 17.2812 75.0656 16.75C75.5031 16.2109 76.0227 15.8008 76.6242 15.5195C77.2336 15.2305 77.9133 15.0859 78.6633 15.0859C79.257 15.0859 79.8 15.1719 80.2922 15.3438C80.7844 15.5156 81.2062 15.7891 81.5578 16.1641C81.9172 16.5391 82.1906 17.0352 82.3781 17.6523C82.5734 18.2695 82.6711 19.0234 82.6711 19.9141V28H79.2727V19.9023C79.2727 19.3398 79.1945 18.9023 79.0383 18.5898C78.882 18.2773 78.6516 18.0586 78.3469 17.9336C78.05 17.8008 77.6828 17.7344 77.2453 17.7344C76.7922 17.7344 76.3977 17.8242 76.0617 18.0039C75.7336 18.1836 75.4602 18.4336 75.2414 18.7539C75.0305 19.0664 74.8703 19.4336 74.7609 19.8555C74.6516 20.2773 74.5969 20.7305 74.5969 21.2148ZM92.8758 25.2344V10H96.2742V28H93.2156L92.8758 25.2344ZM84.8602 21.8125V21.5664C84.8602 20.5977 84.9695 19.7188 85.1883 18.9297C85.407 18.1328 85.7273 17.4492 86.1492 16.8789C86.5711 16.3086 87.0906 15.8672 87.7078 15.5547C88.325 15.2422 89.0281 15.0859 89.8172 15.0859C90.5594 15.0859 91.2078 15.2422 91.7625 15.5547C92.325 15.8672 92.8016 16.3125 93.1922 16.8906C93.5906 17.4609 93.9109 18.1367 94.1531 18.918C94.3953 19.6914 94.5711 20.5391 94.6805 21.4609V22C94.5711 22.8828 94.3953 23.7031 94.1531 24.4609C93.9109 25.2188 93.5906 25.8828 93.1922 26.4531C92.8016 27.0156 92.325 27.4531 91.7625 27.7656C91.2 28.0781 90.5438 28.2344 89.7938 28.2344C89.0047 28.2344 88.3016 28.0742 87.6844 27.7539C87.075 27.4336 86.5594 26.9844 86.1375 26.4062C85.7234 25.8281 85.407 25.1484 85.1883 24.3672C84.9695 23.5859 84.8602 22.7344 84.8602 21.8125ZM88.2352 21.5664V21.8125C88.2352 22.3359 88.2742 22.8242 88.3523 23.2773C88.4383 23.7305 88.575 24.1328 88.7625 24.4844C88.9578 24.8281 89.2078 25.0977 89.5125 25.293C89.825 25.4805 90.2039 25.5742 90.6492 25.5742C91.2273 25.5742 91.7039 25.4453 92.0789 25.1875C92.4539 24.9219 92.7391 24.5586 92.9344 24.0977C93.1375 23.6367 93.2547 23.1055 93.2859 22.5039V20.9688C93.2625 20.4766 93.1922 20.0352 93.075 19.6445C92.9656 19.2461 92.8016 18.9062 92.5828 18.625C92.3719 18.3438 92.1063 18.125 91.7859 17.9688C91.4734 17.8125 91.1023 17.7344 90.6727 17.7344C90.2352 17.7344 89.8602 17.8359 89.5477 18.0391C89.2352 18.2344 88.9813 18.5039 88.7859 18.8477C88.5984 19.1914 88.4578 19.5977 88.3641 20.0664C88.2781 20.5273 88.2352 21.0273 88.2352 21.5664ZM104.897 28.2344C103.912 28.2344 103.03 28.0781 102.248 27.7656C101.467 27.4453 100.803 27.0039 100.256 26.4414C99.7172 25.8789 99.3031 25.2266 99.0141 24.4844C98.725 23.7344 98.5805 22.9375 98.5805 22.0938V21.625C98.5805 20.6641 98.7172 19.7852 98.9906 18.9883C99.2641 18.1914 99.6547 17.5 100.162 16.9141C100.678 16.3281 101.303 15.8789 102.037 15.5664C102.772 15.2461 103.6 15.0859 104.522 15.0859C105.42 15.0859 106.217 15.2344 106.912 15.5312C107.608 15.8281 108.19 16.25 108.659 16.7969C109.135 17.3438 109.495 18 109.737 18.7656C109.979 19.5234 110.1 20.3672 110.1 21.2969V22.7031H100.022V20.4531H106.784V20.1953C106.784 19.7266 106.698 19.3086 106.526 18.9414C106.362 18.5664 106.112 18.2695 105.776 18.0508C105.44 17.832 105.01 17.7227 104.487 17.7227C104.041 17.7227 103.659 17.8203 103.338 18.0156C103.018 18.2109 102.756 18.4844 102.553 18.8359C102.358 19.1875 102.209 19.6016 102.108 20.0781C102.014 20.5469 101.967 21.0625 101.967 21.625V22.0938C101.967 22.6016 102.037 23.0703 102.178 23.5C102.327 23.9297 102.534 24.3008 102.799 24.6133C103.073 24.9258 103.401 25.168 103.784 25.3398C104.174 25.5117 104.616 25.5977 105.108 25.5977C105.717 25.5977 106.284 25.4805 106.807 25.2461C107.338 25.0039 107.795 24.6406 108.178 24.1562L109.819 25.9375C109.553 26.3203 109.19 26.6875 108.729 27.0391C108.276 27.3906 107.729 27.6797 107.088 27.9062C106.448 28.125 105.717 28.2344 104.897 28.2344ZM115.734 10V28H112.348V10H115.734ZM122.236 15.3203V28H118.849V15.3203H122.236ZM118.638 12.0156C118.638 11.5234 118.81 11.1172 119.154 10.7969C119.498 10.4766 119.959 10.3164 120.537 10.3164C121.107 10.3164 121.564 10.4766 121.908 10.7969C122.259 11.1172 122.435 11.5234 122.435 12.0156C122.435 12.5078 122.259 12.9141 121.908 13.2344C121.564 13.5547 121.107 13.7148 120.537 13.7148C119.959 13.7148 119.498 13.5547 119.154 13.2344C118.81 12.9141 118.638 12.5078 118.638 12.0156ZM129.488 25.5391L132.3 15.3203H135.827L131.55 28H129.417L129.488 25.5391ZM127.554 15.3203L130.378 25.5508L130.437 28H128.292L124.015 15.3203H127.554ZM143.161 28.2344C142.177 28.2344 141.294 28.0781 140.512 27.7656C139.731 27.4453 139.067 27.0039 138.52 26.4414C137.981 25.8789 137.567 25.2266 137.278 24.4844C136.989 23.7344 136.845 22.9375 136.845 22.0938V21.625C136.845 20.6641 136.981 19.7852 137.255 18.9883C137.528 18.1914 137.919 17.5 138.427 16.9141C138.942 16.3281 139.567 15.8789 140.302 15.5664C141.036 15.2461 141.864 15.0859 142.786 15.0859C143.684 15.0859 144.481 15.2344 145.177 15.5312C145.872 15.8281 146.454 16.25 146.923 16.7969C147.399 17.3438 147.759 18 148.001 18.7656C148.243 19.5234 148.364 20.3672 148.364 21.2969V22.7031H138.286V20.4531H145.048V20.1953C145.048 19.7266 144.962 19.3086 144.79 18.9414C144.626 18.5664 144.376 18.2695 144.04 18.0508C143.704 17.832 143.274 17.7227 142.751 17.7227C142.305 17.7227 141.923 17.8203 141.602 18.0156C141.282 18.2109 141.02 18.4844 140.817 18.8359C140.622 19.1875 140.473 19.6016 140.372 20.0781C140.278 20.5469 140.231 21.0625 140.231 21.625V22.0938C140.231 22.6016 140.302 23.0703 140.442 23.5C140.591 23.9297 140.798 24.3008 141.063 24.6133C141.337 24.9258 141.665 25.168 142.048 25.3398C142.438 25.5117 142.88 25.5977 143.372 25.5977C143.981 25.5977 144.548 25.4805 145.071 25.2461C145.602 25.0039 146.059 24.6406 146.442 24.1562L148.083 25.9375C147.817 26.3203 147.454 26.6875 146.993 27.0391C146.54 27.3906 145.993 27.6797 145.352 27.9062C144.712 28.125 143.981 28.2344 143.161 28.2344ZM153.811 18.0859V28H150.436V15.3203H153.612L153.811 18.0859ZM157.631 15.2383L157.573 18.3672C157.409 18.3438 157.209 18.3242 156.975 18.3086C156.748 18.2852 156.541 18.2734 156.354 18.2734C155.877 18.2734 155.463 18.3359 155.112 18.4609C154.768 18.5781 154.479 18.7539 154.245 18.9883C154.018 19.2227 153.846 19.5078 153.729 19.8438C153.62 20.1797 153.557 20.5625 153.541 20.9922L152.862 20.7812C152.862 19.9609 152.944 19.207 153.108 18.5195C153.272 17.8242 153.51 17.2188 153.823 16.7031C154.143 16.1875 154.534 15.7891 154.995 15.5078C155.455 15.2266 155.983 15.0859 156.577 15.0859C156.764 15.0859 156.955 15.1016 157.151 15.1328C157.346 15.1562 157.506 15.1914 157.631 15.2383ZM166.629 25.2344V10H170.027V28H166.969L166.629 25.2344ZM158.613 21.8125V21.5664C158.613 20.5977 158.723 19.7188 158.941 18.9297C159.16 18.1328 159.48 17.4492 159.902 16.8789C160.324 16.3086 160.844 15.8672 161.461 15.5547C162.078 15.2422 162.781 15.0859 163.57 15.0859C164.312 15.0859 164.961 15.2422 165.516 15.5547C166.078 15.8672 166.555 16.3125 166.945 16.8906C167.344 17.4609 167.664 18.1367 167.906 18.918C168.148 19.6914 168.324 20.5391 168.434 21.4609V22C168.324 22.8828 168.148 23.7031 167.906 24.4609C167.664 25.2188 167.344 25.8828 166.945 26.4531C166.555 27.0156 166.078 27.4531 165.516 27.7656C164.953 28.0781 164.297 28.2344 163.547 28.2344C162.758 28.2344 162.055 28.0742 161.438 27.7539C160.828 27.4336 160.312 26.9844 159.891 26.4062C159.477 25.8281 159.16 25.1484 158.941 24.3672C158.723 23.5859 158.613 22.7344 158.613 21.8125ZM161.988 21.5664V21.8125C161.988 22.3359 162.027 22.8242 162.105 23.2773C162.191 23.7305 162.328 24.1328 162.516 24.4844C162.711 24.8281 162.961 25.0977 163.266 25.293C163.578 25.4805 163.957 25.5742 164.402 25.5742C164.98 25.5742 165.457 25.4453 165.832 25.1875C166.207 24.9219 166.492 24.5586 166.688 24.0977C166.891 23.6367 167.008 23.1055 167.039 22.5039V20.9688C167.016 20.4766 166.945 20.0352 166.828 19.6445C166.719 19.2461 166.555 18.9062 166.336 18.625C166.125 18.3438 165.859 18.125 165.539 17.9688C165.227 17.8125 164.855 17.7344 164.426 17.7344C163.988 17.7344 163.613 17.8359 163.301 18.0391C162.988 18.2344 162.734 18.5039 162.539 18.8477C162.352 19.1914 162.211 19.5977 162.117 20.0664C162.031 20.5273 161.988 21.0273 161.988 21.5664ZM172.275 21.7891V21.543C172.275 20.6133 172.408 19.7578 172.673 18.9766C172.939 18.1875 173.326 17.5039 173.834 16.9258C174.341 16.3477 174.966 15.8984 175.709 15.5781C176.451 15.25 177.302 15.0859 178.263 15.0859C179.224 15.0859 180.08 15.25 180.83 15.5781C181.58 15.8984 182.209 16.3477 182.716 16.9258C183.232 17.5039 183.623 18.1875 183.888 18.9766C184.154 19.7578 184.287 20.6133 184.287 21.543V21.7891C184.287 22.7109 184.154 23.5664 183.888 24.3555C183.623 25.1367 183.232 25.8203 182.716 26.4062C182.209 26.9844 181.584 27.4336 180.841 27.7539C180.099 28.0742 179.248 28.2344 178.287 28.2344C177.326 28.2344 176.47 28.0742 175.72 27.7539C174.978 27.4336 174.349 26.9844 173.834 26.4062C173.326 25.8203 172.939 25.1367 172.673 24.3555C172.408 23.5664 172.275 22.7109 172.275 21.7891ZM175.65 21.543V21.7891C175.65 22.3203 175.697 22.8164 175.791 23.2773C175.884 23.7383 176.033 24.1445 176.236 24.4961C176.447 24.8398 176.72 25.1094 177.056 25.3047C177.392 25.5 177.802 25.5977 178.287 25.5977C178.755 25.5977 179.158 25.5 179.494 25.3047C179.83 25.1094 180.099 24.8398 180.302 24.4961C180.505 24.1445 180.654 23.7383 180.748 23.2773C180.849 22.8164 180.9 22.3203 180.9 21.7891V21.543C180.9 21.0273 180.849 20.543 180.748 20.0898C180.654 19.6289 180.502 19.2227 180.291 18.8711C180.087 18.5117 179.818 18.2305 179.482 18.0273C179.146 17.8242 178.74 17.7227 178.263 17.7227C177.787 17.7227 177.38 17.8242 177.045 18.0273C176.716 18.2305 176.447 18.5117 176.236 18.8711C176.033 19.2227 175.884 19.6289 175.791 20.0898C175.697 20.543 175.65 21.0273 175.65 21.543Z" fill="#FFC801"/>
<path d="M20 35C16.75 35 13.993 33.868 11.729 31.604C9.465 29.34 8.333 26.583 8.333 23.333C8.333 20.611 9.15933 18.1943 10.812 16.083C12.4653 13.9723 14.6113 12.6113 17.25 12C16.5833 11.8613 15.9373 11.66 15.312 11.396C14.6873 11.132 14.125 10.75 13.625 10.25C12.8197 9.41664 12.285 8.4373 12.021 7.31197C11.757 6.1873 11.639 5.02764 11.667 3.83297C12.111 3.6943 12.5413 3.63197 12.958 3.64597C13.3747 3.65997 13.736 3.77797 14.042 3.99997C15.8473 4.16664 17.375 4.93064 18.625 6.29197C19.875 7.65264 20.5 9.26364 20.5 11.125C20.8887 10.0416 21.4027 9.02764 22.042 8.08297C22.6807 7.13897 23.4027 6.26397 24.208 5.45797C24.486 5.20797 24.8127 5.08297 25.188 5.08297C25.5627 5.08297 25.889 5.20797 26.167 5.45797C26.4443 5.73597 26.583 6.06264 26.583 6.43797C26.583 6.81264 26.4443 7.13897 26.167 7.41697C25.5003 8.08364 24.903 8.80564 24.375 9.58297C23.847 10.361 23.4163 11.1943 23.083 12.083C25.639 12.7776 27.7087 14.1666 29.292 16.25C30.8753 18.3333 31.667 20.6943 31.667 23.333C31.667 26.583 30.535 29.34 28.271 31.604C26.007 33.868 23.25 35 20 35ZM20 32.208C22.472 32.208 24.5693 31.347 26.292 29.625C28.014 27.903 28.875 25.8056 28.875 23.333C28.875 20.861 28.014 18.764 26.292 17.042C24.5693 15.3193 22.472 14.458 20 14.458C17.528 14.458 15.4307 15.3193 13.708 17.042C11.986 18.764 11.125 20.861 11.125 23.333C11.125 25.8056 11.986 27.903 13.708 29.625C15.4307 31.347 17.528 32.208 20 32.208Z" fill="#FFC801"/>
</svg>
