<svg width="20" height="20" viewBox="0 0 20 20" fill="none" xmlns="http://www.w3.org/2000/svg">
<path d="M4 16C2.87467 16 1.92667 15.6147 1.156 14.844C0.385333 14.0733 0 13.1253 0 12C0 10.9027 0.368 9.96167 1.104 9.177C1.84 8.39233 2.80533 8 4 8C4.95867 8 5.80233 8.309 6.531 8.927C7.26033 9.545 7.72233 10.3193 7.917 11.25H8.896L7.354 7H6V5.5H10V7H8.958L9.312 8H13.562L12.271 4.5H10V3H12.271C12.6457 3 12.9407 3.08333 13.156 3.25C13.3713 3.41667 13.5487 3.66667 13.688 4L15.146 8H15.833C16.9583 8 17.9307 8.38533 18.75 9.156C19.5693 9.92667 19.979 10.8747 19.979 12C19.979 13.1113 19.59 14.0557 18.812 14.833C18.0347 15.611 17.0973 16 16 16C15.0413 16 14.1907 15.6943 13.448 15.083C12.7047 14.4723 12.2427 13.6947 12.062 12.75H7.917C7.72233 13.7087 7.26033 14.49 6.531 15.094C5.80233 15.698 4.95867 16 4 16ZM4 14.5C4.514 14.5 4.98967 14.3507 5.427 14.052C5.86433 13.7533 6.18033 13.3193 6.375 12.75H4V11.25H6.375C6.22233 10.736 5.91667 10.316 5.458 9.99C5 9.66333 4.514 9.5 4 9.5C3.30533 9.5 2.715 9.74667 2.229 10.24C1.743 10.7327 1.5 11.3193 1.5 12C1.5 12.6947 1.743 13.285 2.229 13.771C2.715 14.257 3.30533 14.5 4 14.5ZM10.5 11.25H12.083C12.153 10.9307 12.2537 10.625 12.385 10.333C12.517 10.0417 12.6873 9.764 12.896 9.5H9.854L10.5 11.25ZM16 14.5C16.6807 14.5 17.2673 14.2533 17.76 13.76C18.2533 13.2673 18.5 12.6807 18.5 12C18.5 11.3193 18.2327 10.7117 17.698 10.177C17.1633 9.64233 16.507 9.43067 15.729 9.542C15.715 9.542 15.715 9.542 15.729 9.542L16.583 11.917L15.167 12.417L14.333 10.146C14.0697 10.382 13.865 10.6597 13.719 10.979C13.573 11.2983 13.5 11.6387 13.5 12C13.5 12.6947 13.743 13.285 14.229 13.771C14.715 14.257 15.3053 14.5 16 14.5Z" fill="white" fill-opacity="0.5"/>
</svg>
