<svg xmlns="http://www.w3.org/2000/svg" height="20" width="20"><path d="M4 16q-1.688 0-2.844-1.156T0 12q0-1.646 1.104-2.823T4 8q1.438 0 2.531.927 1.094.927 1.386 2.323h.979L7.354 7H6V5.5h4V7H8.958l.354 1h4.25l-1.291-3.5H10V3h2.271q.562 0 .885.25.323.25.532.75l1.458 4h.687q1.688 0 2.917 1.156 1.229 1.156 1.229 2.844 0 1.667-1.167 2.833Q17.646 16 16 16q-1.438 0-2.552-.917-1.115-.916-1.386-2.333H7.917q-.292 1.438-1.386 2.344Q5.438 16 4 16Zm0-1.5q.771 0 1.427-.448t.948-1.302H4v-1.5h2.375q-.229-.771-.917-1.26Q4.771 9.5 4 9.5q-1.042 0-1.771.74Q1.5 10.979 1.5 12q0 1.042.729 1.771.729.729 1.771.729Zm6.5-3.25h1.583q.105-.479.302-.917.198-.437.511-.833H9.854ZM16 14.5q1.021 0 1.76-.74.74-.739.74-1.76t-.802-1.823q-.802-.802-1.969-.635-.021 0 0 0l.854 2.375-1.416.5-.834-2.271q-.395.354-.614.833-.219.479-.219 1.021 0 1.042.729 1.771.729.729 1.771.729ZM4 12.062Zm11.875.105Z"/></svg>