<svg xmlns="http://www.w3.org/2000/svg" height="20" width="20"><path d="M5.5 18q-.625 0-1.062-.438Q4 17.125 4 16.5V7q0-.625.438-1.062Q4.875 5.5 5.5 5.5H7v-.333Q7 3.938 7.802 3q.802-.938 2.031-1 1.313-.062 2.24.823Q13 3.708 13 5v.5h1.5q.625 0 1.062.438Q16 6.375 16 7v9.5q0 .625-.438 1.062Q15.125 18 14.5 18Zm0-1.5h9V7H13v1.25q0 .312-.219.531Q12.562 9 12.25 9q-.312 0-.531-.219-.219-.219-.219-.531V7h-3v1.25q0 .312-.219.531Q8.062 9 7.75 9q-.312 0-.531-.219Q7 8.562 7 8.25V7H5.5v9.5Zm3-11h3V5q0-.625-.438-1.062Q10.625 3.5 10 3.5t-1.062.438Q8.5 4.375 8.5 5Zm-3 11V7v9.5Z"/></svg>