<svg width="20" height="20" viewBox="0 0 20 20" fill="none" xmlns="http://www.w3.org/2000/svg">
<path d="M5.5 17.9999C5.08333 17.9999 4.72933 17.8539 4.438 17.5619C4.146 17.2706 4 16.9166 4 16.4999V6.99991C4 6.58324 4.146 6.22924 4.438 5.93791C4.72933 5.64591 5.08333 5.49991 5.5 5.49991H7V5.16691C7 4.34758 7.26733 3.62524 7.802 2.99991C8.33667 2.37458 9.01367 2.04124 9.833 1.99991C10.7083 1.95858 11.455 2.23291 12.073 2.82291C12.691 3.41291 13 4.13858 13 4.99991V5.49991H14.5C14.9167 5.49991 15.2707 5.64591 15.562 5.93791C15.854 6.22924 16 6.58324 16 6.99991V16.4999C16 16.9166 15.854 17.2706 15.562 17.5619C15.2707 17.8539 14.9167 17.9999 14.5 17.9999H5.5ZM5.5 16.4999H14.5V6.99991H13V8.24991C13 8.45791 12.927 8.63491 12.781 8.78091C12.635 8.92691 12.458 8.99991 12.25 8.99991C12.042 8.99991 11.865 8.92691 11.719 8.78091C11.573 8.63491 11.5 8.45791 11.5 8.24991V6.99991H8.5V8.24991C8.5 8.45791 8.427 8.63491 8.281 8.78091C8.135 8.92691 7.958 8.99991 7.75 8.99991C7.542 8.99991 7.365 8.92691 7.219 8.78091C7.073 8.63491 7 8.45791 7 8.24991V6.99991H5.5V16.4999ZM8.5 5.49991H11.5V4.99991C11.5 4.58324 11.354 4.22924 11.062 3.93791C10.7707 3.64591 10.4167 3.49991 10 3.49991C9.58333 3.49991 9.22933 3.64591 8.938 3.93791C8.646 4.22924 8.5 4.58324 8.5 4.99991V5.49991Z" fill="white" fill-opacity="0.5"/>
</svg>
